<svg id="visual" viewBox="0 0 900 600" width="900" height="600" xmlns="http://www.w3.org/2000/svg" xmlns:xlink="http://www.w3.org/1999/xlink" version="1.1"><path d="M0 205L13.7 186C27.3 167 54.7 129 82 112C109.3 95 136.7 99 163.8 112C191 125 218 147 245.2 173C272.3 199 299.7 229 327 240C354.3 251 381.7 243 409 227C436.3 211 463.7 187 491 180C518.3 173 545.7 183 573 175C600.3 167 627.7 141 654.8 133C682 125 709 135 736.2 145C763.3 155 790.7 165 818 173C845.3 181 872.7 187 886.3 190L900 193L900 0L886.3 0C872.7 0 845.3 0 818 0C790.7 0 763.3 0 736.2 0C709 0 682 0 654.8 0C627.7 0 600.3 0 573 0C545.7 0 518.3 0 491 0C463.7 0 436.3 0 409 0C381.7 0 354.3 0 327 0C299.7 0 272.3 0 245.2 0C218 0 191 0 163.8 0C136.7 0 109.3 0 82 0C54.7 0 27.3 0 13.7 0L0 0Z" fill="#6198ff"></path><path d="M0 415L13.7 401C27.3 387 54.7 359 82 348C109.3 337 136.7 343 163.8 342C191 341 218 333 245.2 340C272.3 347 299.7 369 327 377C354.3 385 381.7 379 409 373C436.3 367 463.7 361 491 353C518.3 345 545.7 335 573 336C600.3 337 627.7 349 654.8 355C682 361 709 361 736.2 351C763.3 341 790.7 321 818 316C845.3 311 872.7 321 886.3 326L900 331L900 191L886.3 188C872.7 185 845.3 179 818 171C790.7 163 763.3 153 736.2 143C709 133 682 123 654.8 131C627.7 139 600.3 165 573 173C545.7 181 518.3 171 491 178C463.7 185 436.3 209 409 225C381.7 241 354.3 249 327 238C299.7 227 272.3 197 245.2 171C218 145 191 123 163.8 110C136.7 97 109.3 93 82 110C54.7 127 27.3 165 13.7 184L0 203Z" fill="#3c80ff"></path><path d="M0 475L13.7 468C27.3 461 54.7 447 82 433C109.3 419 136.7 405 163.8 398C191 391 218 391 245.2 403C272.3 415 299.7 439 327 450C354.3 461 381.7 459 409 458C436.3 457 463.7 457 491 451C518.3 445 545.7 433 573 433C600.3 433 627.7 445 654.8 444C682 443 709 429 736.2 420C763.3 411 790.7 407 818 407C845.3 407 872.7 411 886.3 413L900 415L900 329L886.3 324C872.7 319 845.3 309 818 314C790.7 319 763.3 339 736.2 349C709 359 682 359 654.8 353C627.7 347 600.3 335 573 334C545.7 333 518.3 343 491 351C463.7 359 436.3 365 409 371C381.7 377 354.3 383 327 375C299.7 367 272.3 345 245.2 338C218 331 191 339 163.8 340C136.7 341 109.3 335 82 346C54.7 357 27.3 385 13.7 399L0 413Z" fill="#0066ff"></path><path d="M0 547L13.7 541C27.3 535 54.7 523 82 525C109.3 527 136.7 543 163.8 541C191 539 218 519 245.2 515C272.3 511 299.7 523 327 530C354.3 537 381.7 539 409 536C436.3 533 463.7 525 491 516C518.3 507 545.7 497 573 501C600.3 505 627.7 523 654.8 529C682 535 709 529 736.2 529C763.3 529 790.7 535 818 536C845.3 537 872.7 533 886.3 531L900 529L900 413L886.3 411C872.7 409 845.3 405 818 405C790.7 405 763.3 409 736.2 418C709 427 682 441 654.8 442C627.7 443 600.3 431 573 431C545.7 431 518.3 443 491 449C463.7 455 436.3 455 409 456C381.7 457 354.3 459 327 448C299.7 437 272.3 413 245.2 401C218 389 191 389 163.8 396C136.7 403 109.3 417 82 431C54.7 445 27.3 459 13.7 466L0 473Z" fill="#0059dd"></path><path d="M0 601L13.7 601C27.3 601 54.7 601 82 601C109.3 601 136.7 601 163.8 601C191 601 218 601 245.2 601C272.3 601 299.7 601 327 601C354.3 601 381.7 601 409 601C436.3 601 463.7 601 491 601C518.3 601 545.7 601 573 601C600.3 601 627.7 601 654.8 601C682 601 709 601 736.2 601C763.3 601 790.7 601 818 601C845.3 601 872.7 601 886.3 601L900 601L900 527L886.3 529C872.7 531 845.3 535 818 534C790.7 533 763.3 527 736.2 527C709 527 682 533 654.8 527C627.7 521 600.3 503 573 499C545.7 495 518.3 505 491 514C463.7 523 436.3 531 409 534C381.7 537 354.3 535 327 528C299.7 521 272.3 509 245.2 513C218 517 191 537 163.8 539C136.7 541 109.3 525 82 523C54.7 521 27.3 533 13.7 539L0 545Z" fill="#004cbb"></path></svg>