<svg id="visual" viewBox="0 0 900 600" width="900" height="600" xmlns="http://www.w3.org/2000/svg" xmlns:xlink="http://www.w3.org/1999/xlink" version="1.1"><rect x="0" y="0" width="900" height="600" fill="#002233"></rect><path d="M0 446L21.5 434C43 422 86 398 128.8 389C171.7 380 214.3 386 257.2 406.2C300 426.3 343 460.7 385.8 479.3C428.7 498 471.3 501 514.2 483.5C557 466 600 428 642.8 411.7C685.7 395.3 728.3 400.7 771.2 398.3C814 396 857 386 878.5 381L900 376L900 601L878.5 601C857 601 814 601 771.2 601C728.3 601 685.7 601 642.8 601C600 601 557 601 514.2 601C471.3 601 428.7 601 385.8 601C343 601 300 601 257.2 601C214.3 601 171.7 601 128.8 601C86 601 43 601 21.5 601L0 601Z" fill="#0066FF" stroke-linecap="round" stroke-linejoin="miter"></path></svg>